<?xml version="1.0" encoding="UTF-8" standalone="no"?>
<svg
   xmlns:dc="http://purl.org/dc/elements/1.1/"
   xmlns:cc="http://creativecommons.org/ns#"
   xmlns:rdf="http://www.w3.org/1999/02/22-rdf-syntax-ns#"
   xmlns:svg="http://www.w3.org/2000/svg"
   xmlns="http://www.w3.org/2000/svg"
   id="svg4332"
   version="1.1"
   viewBox="0 0 4.2333332 4.2333335"
   height="16"
   width="16">
  <defs
     id="defs4326" />
  <metadata
     id="metadata4329">
    <rdf:RDF>
      <cc:Work
         rdf:about="">
        <dc:format>image/svg+xml</dc:format>
        <dc:type
           rdf:resource="http://purl.org/dc/dcmitype/StillImage" />
        <dc:title></dc:title>
      </cc:Work>
    </rdf:RDF>
  </metadata>
  <g
     transform="translate(0,-292.76665)"
     id="layer1">
    <path
       id="rect4879"
       d="m 2.1156662,292.76717 c -1.16615303,0 -2.115633025,0.94924 -2.115633025,2.11511 v 5.2e-4 1.85208 c 0,0.14657 0.118012995,0.26458 0.264583995,0.26458 H 1.0583672 c 0.146571,0 0.264583,-0.11801 0.264583,-0.26458 v -1.5875 c 0,-0.14658 -0.118012,-0.26458 -0.264583,-0.26458 h -0.52916703 -0.0021 v -5.2e-4 c -1e-6,-0.87988 0.70946503,-1.58698 1.58956603,-1.58698 0.880101,0 1.589567,0.7071 1.589567,1.58698 v 5.2e-4 h -0.0021 -0.529167 c -0.146571,0 -0.264583,0.11801 -0.264583,0.26458 v 1.5875 c 0,0.14657 0.118012,0.26458 0.264583,0.26458 h 0.79375 c 0.146571,0 0.264584,-0.11801 0.264584,-0.26458 v -1.85208 -5.2e-4 c 0,-1.16587 -0.94948,-2.11511 -2.115633,-2.11511 h -10e-4 z"
       style="opacity:1;fill:#bebebe;stroke:none;stroke-width:0.52916664;stroke-miterlimit:4;stroke-dasharray:none" />
    <path
       style="fill:#bebebe;fill-opacity:1;stroke:none;stroke-width:0.26458332px;stroke-linecap:butt;stroke-linejoin:miter;stroke-opacity:1;enable-background:new"
       d="m 1.8520837,294.35415 -0.529167,1.32292 h 0.79375 l -0.264583,1.05833 1.058333,-1.5875 -0.79375,-0.002 0.529167,-0.79198 z"
       id="path6137" />
  </g>
</svg>
