<?xml version="1.0" encoding="UTF-8" standalone="no"?>
<svg
   xmlns:dc="http://purl.org/dc/elements/1.1/"
   xmlns:cc="http://creativecommons.org/ns#"
   xmlns:rdf="http://www.w3.org/1999/02/22-rdf-syntax-ns#"
   xmlns:svg="http://www.w3.org/2000/svg"
   xmlns="http://www.w3.org/2000/svg"
   id="svg8"
   width="16"
   version="1.1"
   style="enable-background:new"
   height="16">
  <metadata
     id="metadata14">
    <rdf:RDF>
      <cc:Work
         rdf:about="">
        <dc:format>image/svg+xml</dc:format>
        <dc:type
           rdf:resource="http://purl.org/dc/dcmitype/StillImage" />
        <dc:title>
  Paper Symbolic Icon Theme
 </dc:title>
      </cc:Work>
    </rdf:RDF>
  </metadata>
  <defs
     id="defs12">
    <symbol
       id="CommunicationLink">
      <title
         id="title6016">Communication Link</title>
      <desc
         id="desc6018">Transcommunication link.</desc>
      <path
         id="path6020"
         style="fill:none;stroke-width:2"
         d="M 65,25 V 85 L 85,65 v 60" />
    </symbol>
    <symbol
       id="symbol8918">
      <title
         id="title8914">Bluetooth Audio</title>
      <path
         id="path8916"
         d="m 28.48,24.02 4.64,4.64 C 33.68,27.21 34,25.64 34,24 34,22.37 33.69,20.81 33.14,19.37 Z m 10.58,-10.59 -2.53,2.53 c 1.25,2.41 1.97,5.14 1.97,8.05 0,2.91 -0.72,5.63 -1.97,8.05 l 2.4,2.4 C 40.86,31.36 42,27.73 42,23.83 42,20.01 40.91,16.46 39.06,13.43 Z M 31.41,15.41 20,4 H 18 V 19.17 L 8.83,10 6,12.83 17.17,24 6,35.17 8.83,38 18,28.83 V 44 h 2 L 31.41,32.59 22.83,24 Z M 22,11.66 25.76,15.42 22,19.17 Z M 25.76,32.59 22,36.34 v -7.52 z" />
    </symbol>
    <symbol
       id="lightning_bolt">
      <title
         id="title9186">Lightning Bolt</title>
      <path
         id="path9188"
         d="m 302.186,31.092 c 32.501,0 65.003,0 97.506,0 2.53,4.227 -0.813,7.087 -2.634,10.046 -22.174,36.042 -44.59,71.935 -66.703,108.013 -0.955,1.558 -2.227,2.96 -2.645,4.825 2.018,2.337 4.568,1.3 6.773,1.311 19.963,0.095 39.928,0.005 59.893,0.095 3.113,0.016 6.979,-0.727 8.703,2.551 1.748,3.322 -1.158,6.027 -2.961,8.546 -45.222,63.201 -89.718,126.917 -134.941,190.118 -2.479,3.465 -4.642,7.154 -7.244,10.521 -1.693,2.19 -2.955,5.313 -6.739,4.5 -2.535,-3.313 -0.776,-6.672 0.066,-9.896 11.226,-42.965 22.228,-85.984 33.28,-128.994 2.657,-10.336 2.302,-10.701 -8.554,-10.727 -14.892,-0.035 -29.784,0.027 -44.677,-0.035 -3.677,-0.016 -7.524,0.5 -10.646,-2.256 0,-0.531 0,-1.064 0,-1.598 10.526,-30.931 24.806,-60.312 37.621,-90.283 12.626,-29.532 25.141,-59.116 38.055,-88.527 1.394,-3.174 2.447,-6.504 5.847,-8.21 z" />
    </symbol>
    <symbol
       id="symbol9517">
      <title
         id="title9513">Data Usage</title>
      <path
         id="path9515"
         d="m 26,4.1 v 6.06 c 6.78,0.97 12,6.79 12,13.84 0,1.79 -0.35,3.5 -0.96,5.07 l 5.2,3.07 C 43.35,29.65 44,26.91 44,24 44,13.63 36.11,5.11 26,4.1 Z M 24,38 C 16.27,38 10,31.73 10,24 10,16.95 15.22,11.13 22,10.16 V 4.1 C 11.88,5.1 4,13.63 4,24 4,35.05 12.94,44 23.99,44 30.61,44 36.46,40.77 40.1,35.82 L 34.91,32.76 C 32.35,35.95 28.42,38 24,38 Z" />
    </symbol>
    <symbol
       viewBox="0 0 1024 1024"
       id="icon-move">
      <title
         id="title82973">move</title>
      <path
         id="path82975"
         d="M 794.004,118.164 748.748,163.42 901.49,316.16 H -0.001 v 64 H 901.49 L 748.748,532.9 794.004,578.156 1024,348.16 Z M 229.996,445.844 0,675.84 229.996,905.836 275.252,860.58 122.51,707.84 h 901.491 v -64 H 122.51 L 275.252,491.1 Z"
         class="path1" />
    </symbol>
    <symbol
       viewBox="0 0 20 28"
       id="icon-shield">
      <title
         id="title11780">shield</title>
      <path
         id="path11782"
         d="M 17,15 V 5 H 10 V 22.766 C 10.797,22.344 12.078,21.61 13.328,20.625 15,19.312 17,17.266 17,15 Z M 20,3 V 15 C 20,21.578 10.797,25.734 10.406,25.906 10.281,25.969 10.14,26 10,26 9.86,26 9.719,25.969 9.594,25.906 9.203,25.734 0,21.578 0,15 V 3 C 0,2.453 0.453,2 1,2 h 18 c 0.547,0 1,0.453 1,1 z" />
    </symbol>
    <symbol
       viewBox="0 0 18 28"
       id="icon-microphone">
      <title
         id="title11770">microphone</title>
      <path
         id="path11772"
         d="m 18,11 v 2 c 0,4.625 -3.5,8.437 -8,8.937 V 24 h 4 c 0.547,0 1,0.453 1,1 0,0.547 -0.453,1 -1,1 H 4 C 3.453,26 3,25.547 3,25 3,24.453 3.453,24 4,24 H 8 V 21.937 C 3.5,21.437 0,17.625 0,13 v -2 c 0,-0.547 0.453,-1 1,-1 0.547,0 1,0.453 1,1 v 2 c 0,3.859 3.141,7 7,7 3.859,0 7,-3.141 7,-7 v -2 c 0,-0.547 0.453,-1 1,-1 0.547,0 1,0.453 1,1 z M 14,5 v 8 c 0,2.75 -2.25,5 -5,5 C 6.25,18 4,15.75 4,13 V 5 C 4,2.25 6.25,0 9,0 c 2.75,0 5,2.25 5,5 z" />
    </symbol>
    <symbol
       viewBox="0 0 30 28"
       id="icon-stumbleupon">
      <title
         id="title12315">stumbleupon</title>
      <path
         id="path12317"
         d="M 16.594,11.125 V 9.281 c 0,-0.875 -0.719,-1.594 -1.594,-1.594 -0.875,0 -1.594,0.719 -1.594,1.594 v 9.562 c 0,3.656 -3.031,6.609 -6.703,6.609 C 3,25.452 0,22.452 0,18.749 v -4.156 h 5.125 v 4.094 c 0,0.891 0.719,1.594 1.594,1.594 0.875,0 1.594,-0.703 1.594,-1.594 V 8.999 c 0,-3.578 3.063,-6.453 6.687,-6.453 3.641,0 6.687,2.891 6.687,6.5 v 2.125 l -3.047,0.906 z m 8.281,3.469 H 30 v 4.156 c 0,3.703 -3,6.703 -6.703,6.703 -3.687,0 -6.703,-2.969 -6.703,-6.641 v -4.188 l 2.047,0.953 3.047,-0.906 v 4.219 c 0,0.875 0.719,1.578 1.594,1.578 0.875,0 1.594,-0.703 1.594,-1.578 v -4.297 z" />
    </symbol>
  </defs>
  <title
     id="title2">
  Paper Symbolic Icon Theme
 </title>
  <g
     style="fill:#bebebe;stroke:none;stroke-width:0.99999994"
     transform="translate(0,-0.00669269)"
     id="g6957">
    <g
       style="fill:#bebebe;stroke:none;stroke-width:0.99999994"
       transform="translate(-325.0002,-80.996672)"
       id="g6" />
    <g
       id="g30659"
       transform="matrix(0.13198308,0,0,0.1338379,-0.44715489,-0.71498615)"
       style="fill:#bebebe;fill-opacity:1;stroke:none;stroke-width:0.98308724">
      <g
         style="fill:#bebebe;fill-opacity:1;stroke:none;stroke-width:0.98308724"
         transform="matrix(1.045066,0,0,1.0346114,-3.5094621,-1.2293254)"
         id="g5090">
        <path
           style="fill:#bebebe;fill-opacity:1;stroke:none;stroke-width:0.98308724"
           id="path5092"
           d="M 64.5,6.4 C 32.6,6.4 6.6,32.4 6.6,64.3 v 4.688669 8.906849 39.960462 c 0,2.3 1.8083335,4.09233 4.108333,4.09233 h 20.783334 c 2.3,0 4.108333,-1.79234 4.108333,-4.09233 V 68.988669 c 0,-2.3 -1.808334,-4.814513 -4.108333,-4.814513 H 13.849998 v -0.502802 c 0,-27.4 23.250002,-50.049585 50.750002,-50.049585 27.5,0 50.75,22.570936 50.75,50.070936 v 0.481451 H 97.708333 c -2.299999,0 -4.108333,1.792336 -4.108333,4.092336 v 49.589488 c 0,2.3 1.929167,4.09232 4.229167,4.09232 l 19.937503,1e-5 c 2.29999,0 4.83333,-1.79233 4.83333,-4.09233 V 77.9 68.988669 64.174156 C 122.4,32.274156 96.4,6.4 64.5,6.4 Z M 28.35,71.495926 v 43.230614 h -14.5 l -2e-6,-36.108845 2e-6,-7.221769 h 14.5 z m 87,4.714513 v 38.516101 h -14.5 V 71.395926 h 14.5 z" />
      </g>
    </g>
    <path
       style="fill:#bebebe;fill-opacity:1;stroke:none;stroke-width:0.99999994px;stroke-linecap:butt;stroke-linejoin:miter;stroke-opacity:1"
       d="M 7,6.0066928 5.0000001,11.006693 H 8 l -1,4 L 11,9.0066928 8,9 9.9999999,6.0066928 Z"
       id="path6137" />
  </g>
</svg>
