<?xml version="1.0" encoding="UTF-8" standalone="no"?>
<svg
   xmlns:dc="http://purl.org/dc/elements/1.1/"
   xmlns:cc="http://creativecommons.org/ns#"
   xmlns:rdf="http://www.w3.org/1999/02/22-rdf-syntax-ns#"
   xmlns:svg="http://www.w3.org/2000/svg"
   xmlns="http://www.w3.org/2000/svg"
   xmlns:sodipodi="http://sodipodi.sourceforge.net/DTD/sodipodi-0.dtd"
   xmlns:inkscape="http://www.inkscape.org/namespaces/inkscape"
   id="svg4332"
   version="1.1"
   viewBox="0 0 4.2333332 4.2333335"
   height="16"
   width="16"
   sodipodi:docname="mpi-symbolic.svg"
   inkscape:version="0.92.2 5c3e80d, 2017-08-06">
  <sodipodi:namedview
     pagecolor="#ffffff"
     bordercolor="#666666"
     borderopacity="1"
     objecttolerance="10"
     gridtolerance="10"
     guidetolerance="10"
     inkscape:pageopacity="0"
     inkscape:pageshadow="2"
     inkscape:window-width="1366"
     inkscape:window-height="717"
     id="namedview8"
     showgrid="false"
     showguides="true"
     inkscape:guide-bbox="true"
     inkscape:zoom="29.5"
     inkscape:cx="9.0134974"
     inkscape:cy="6.8890878"
     inkscape:window-x="0"
     inkscape:window-y="25"
     inkscape:window-maximized="1"
     inkscape:current-layer="g826">
    <sodipodi:guide
       position="1.4967093,3.9637432"
       orientation="0,1"
       id="guide815"
       inkscape:locked="false" />
    <sodipodi:guide
       position="2.3401938,0.26002155"
       orientation="0,1"
       id="guide817"
       inkscape:locked="false" />
    <sodipodi:guide
       position="0.26953452,-0.12049779"
       orientation="1,0"
       id="guide819"
       inkscape:locked="false" />
    <sodipodi:guide
       position="3.9700849,-0.14586575"
       orientation="1,0"
       id="guide821"
       inkscape:locked="false" />
    <sodipodi:guide
       position="2.0180084,3.7041668"
       orientation="0,1"
       id="guide830"
       inkscape:locked="false" />
    <sodipodi:guide
       position="-0.32288135,0.38566386"
       orientation="0,1"
       id="guide832"
       inkscape:locked="false" />
  </sodipodi:namedview>
  <defs
     id="defs4326" />
  <metadata
     id="metadata4329">
    <rdf:RDF>
      <cc:Work
         rdf:about="">
        <dc:format>image/svg+xml</dc:format>
        <dc:type
           rdf:resource="http://purl.org/dc/dcmitype/StillImage" />
        <dc:title />
      </cc:Work>
    </rdf:RDF>
  </metadata>
  <g
     id="g826"
     transform="matrix(0.93210826,0,0,0.93210826,0.01827395,0.26910537)">
    <path
       id="rect4879"
       d="m 2.2502948,0.27900319 c -1.0920149,0 -1.98113171,0.79837691 -1.98113171,1.77895481 v 4.372e-4 1.5577285 c 0,0.1232755 0.11051032,0.2225301 0.24776307,0.2225301 H 1.2602135 c 0.1372528,0 0.2477622,-0.099255 0.2477622,-0.2225301 V 2.2809256 c 0,-0.123284 -0.1105094,-0.2225304 -0.2477622,-0.2225304 H 0.76468829 0.7627218 V 2.057958 c -9.3e-7,-0.7400404 0.6643608,-1.3347607 1.4885094,-1.3347607 0.8241486,0 1.4885103,0.5947203 1.4885103,1.3347607 v 4.372e-4 H 3.737775 3.2422498 c -0.1372528,0 -0.2477622,0.099255 -0.2477622,0.2225304 v 1.3351981 c 0,0.1232755 0.1105094,0.2225301 0.2477622,0.2225301 h 0.7432873 c 0.1372528,0 0.2477631,-0.099255 0.2477631,-0.2225301 V 2.0583952 2.057958 c 0,-0.9805779 -0.8891168,-1.77895481 -1.9811317,-1.77895481 h -9.364e-4 z"
       style="opacity:1;fill:#bebebe;stroke:none;stroke-width:0.46961823;stroke-miterlimit:4;stroke-dasharray:none"
       inkscape:connector-curvature="0" />
    <path
       style="fill:#bebebe;fill-opacity:1;stroke:none;stroke-width:0.19644903px;stroke-linecap:butt;stroke-linejoin:miter;stroke-opacity:1;enable-background:new"
       d="M 2.0740124,1.4961855 1.6811141,2.4784331 H 2.2704612 L 2.0740124,3.2642268 2.8598083,2.0855326 2.2704612,2.0840476 2.6633595,1.4960147 Z"
       id="path6137"
       inkscape:connector-curvature="0" />
  </g>
</svg>
